<svg width="22" height="22" viewBox="0 0 22 22" fill="none" xmlns="http://www.w3.org/2000/svg">
<g filter="url(#filter0_f_11_295)">
<path d="M9.71667 12.2833L7.74583 10.3125C7.57778 10.1444 7.36389 10.0604 7.10417 10.0604C6.84444 10.0604 6.63056 10.1444 6.4625 10.3125C6.29444 10.4806 6.21042 10.6944 6.21042 10.9542C6.21042 11.2139 6.29444 11.4278 6.4625 11.5958L9.075 14.2083C9.25833 14.3917 9.47222 14.4833 9.71667 14.4833C9.96111 14.4833 10.175 14.3917 10.3583 14.2083L15.5375 9.02917C15.7056 8.86111 15.7896 8.64722 15.7896 8.3875C15.7896 8.12778 15.7056 7.91389 15.5375 7.74583C15.3694 7.57778 15.1556 7.49375 14.8958 7.49375C14.6361 7.49375 14.4222 7.57778 14.2542 7.74583L9.71667 12.2833ZM4.58333 19.25C4.07917 19.25 3.64772 19.0706 3.289 18.7119C2.93028 18.3532 2.75061 17.9214 2.75 17.4167V4.58333C2.75 4.07917 2.92967 3.64772 3.289 3.289C3.64833 2.93028 4.07978 2.75061 4.58333 2.75H17.4167C17.9208 2.75 18.3526 2.92967 18.7119 3.289C19.0713 3.64833 19.2506 4.07978 19.25 4.58333V17.4167C19.25 17.9208 19.0706 18.3526 18.7119 18.7119C18.3532 19.0713 17.9214 19.2506 17.4167 19.25H4.58333ZM4.58333 17.4167H17.4167V4.58333H4.58333V17.4167Z" fill="#EE7521" fill-opacity="0.77"/>
</g>
<defs>
<filter id="filter0_f_11_295" x="-1.4" y="-1.4" width="24.8" height="24.8" filterUnits="userSpaceOnUse" color-interpolation-filters="sRGB">
<feFlood flood-opacity="0" result="BackgroundImageFix"/>
<feBlend mode="normal" in="SourceGraphic" in2="BackgroundImageFix" result="shape"/>
<feGaussianBlur stdDeviation="0.7" result="effect1_foregroundBlur_11_295"/>
</filter>
</defs>
</svg>
