<svg width="90" height="90" viewBox="0 0 90 90" fill="none" xmlns="http://www.w3.org/2000/svg">
<g filter="url(#filter0_d_11_270)">
<circle cx="45" cy="41" r="23" fill="#F7A165" fill-opacity="0.47" shape-rendering="crispEdges"/>
</g>
<g filter="url(#filter1_f_11_270)">
<path d="M35 51C34.3125 51 33.7242 50.7554 33.235 50.2662C32.7458 49.7771 32.5008 49.1883 32.5 48.5V33.5C32.5 32.8125 32.745 32.2242 33.235 31.735C33.725 31.2458 34.3133 31.0008 35 31H55C55.6875 31 56.2763 31.245 56.7663 31.735C57.2563 32.225 57.5008 32.8133 57.5 33.5V48.5C57.5 49.1875 57.2554 49.7762 56.7663 50.2662C56.2771 50.7562 55.6883 51.0008 55 51H35ZM45.3287 41.985C45.4429 41.9533 45.5521 41.9062 45.6562 41.8437L54.5 36.3125C54.6667 36.2083 54.7917 36.0783 54.875 35.9225C54.9583 35.7667 55 35.5946 55 35.4062C55 34.9896 54.8229 34.6771 54.4688 34.4687C54.1146 34.2604 53.75 34.2708 53.375 34.5L45 39.75L36.625 34.5C36.25 34.2708 35.8854 34.2658 35.5313 34.485C35.1771 34.7042 35 35.0112 35 35.4062C35 35.6146 35.0417 35.7971 35.125 35.9537C35.2083 36.1104 35.3333 36.23 35.5 36.3125L44.3438 41.8437C44.4479 41.9062 44.5575 41.9533 44.6725 41.985C44.7875 42.0167 44.8967 42.0321 45 42.0312C45.1033 42.0304 45.2129 42.015 45.3287 41.985Z" fill="#EE7521" fill-opacity="0.75"/>
</g>
<defs>
<filter id="filter0_d_11_270" x="0" y="0" width="90" height="90" filterUnits="userSpaceOnUse" color-interpolation-filters="sRGB">
<feFlood flood-opacity="0" result="BackgroundImageFix"/>
<feColorMatrix in="SourceAlpha" type="matrix" values="0 0 0 0 0 0 0 0 0 0 0 0 0 0 0 0 0 0 127 0" result="hardAlpha"/>
<feMorphology radius="2" operator="dilate" in="SourceAlpha" result="effect1_dropShadow_11_270"/>
<feOffset dy="4"/>
<feGaussianBlur stdDeviation="10"/>
<feComposite in2="hardAlpha" operator="out"/>
<feColorMatrix type="matrix" values="0 0 0 0 0.933333 0 0 0 0 0.458824 0 0 0 0 0.129412 0 0 0 0.3 0"/>
<feBlend mode="normal" in2="BackgroundImageFix" result="effect1_dropShadow_11_270"/>
<feBlend mode="normal" in="SourceGraphic" in2="effect1_dropShadow_11_270" result="shape"/>
</filter>
<filter id="filter1_f_11_270" x="28.5" y="24.5" width="33" height="33" filterUnits="userSpaceOnUse" color-interpolation-filters="sRGB">
<feFlood flood-opacity="0" result="BackgroundImageFix"/>
<feBlend mode="normal" in="SourceGraphic" in2="BackgroundImageFix" result="shape"/>
<feGaussianBlur stdDeviation="0.75" result="effect1_foregroundBlur_11_270"/>
</filter>
</defs>
</svg>
