<svg width="90" height="90" viewBox="0 0 90 90" fill="none" xmlns="http://www.w3.org/2000/svg">
<g filter="url(#filter0_d_11_271)">
<circle cx="45" cy="41" r="23" fill="#F7A165" fill-opacity="0.47" shape-rendering="crispEdges"/>
</g>
<g filter="url(#filter1_f_11_271)">
<path d="M45 28.5C43.3585 28.5 41.733 28.8233 40.2165 29.4515C38.6999 30.0797 37.3219 31.0004 36.1612 32.1612C33.817 34.5054 32.5 37.6848 32.5 41C32.5 46.525 36.0875 51.2125 41.05 52.875C41.675 52.975 41.875 52.5875 41.875 52.25V50.1375C38.4125 50.8875 37.675 48.4625 37.675 48.4625C37.1 47.0125 36.2875 46.625 36.2875 46.625C35.15 45.85 36.375 45.875 36.375 45.875C37.625 45.9625 38.2875 47.1625 38.2875 47.1625C39.375 49.0625 41.2125 48.5 41.925 48.2C42.0375 47.3875 42.3625 46.8375 42.7125 46.525C39.9375 46.2125 37.025 45.1375 37.025 40.375C37.025 38.9875 37.5 37.875 38.3125 36.9875C38.1875 36.675 37.75 35.375 38.4375 33.6875C38.4375 33.6875 39.4875 33.35 41.875 34.9625C42.8625 34.6875 43.9375 34.55 45 34.55C46.0625 34.55 47.1375 34.6875 48.125 34.9625C50.5125 33.35 51.5625 33.6875 51.5625 33.6875C52.25 35.375 51.8125 36.675 51.6875 36.9875C52.5 37.875 52.975 38.9875 52.975 40.375C52.975 45.15 50.05 46.2 47.2625 46.5125C47.7125 46.9 48.125 47.6625 48.125 48.825V52.25C48.125 52.5875 48.325 52.9875 48.9625 52.875C53.925 51.2 57.5 46.525 57.5 41C57.5 39.3585 57.1767 37.733 56.5485 36.2165C55.9203 34.6999 54.9996 33.3219 53.8388 32.1612C52.6781 31.0004 51.3001 30.0797 49.7835 29.4515C48.267 28.8233 46.6415 28.5 45 28.5Z" fill="#EE7521" fill-opacity="0.75"/>
</g>
<defs>
<filter id="filter0_d_11_271" x="0" y="0" width="90" height="90" filterUnits="userSpaceOnUse" color-interpolation-filters="sRGB">
<feFlood flood-opacity="0" result="BackgroundImageFix"/>
<feColorMatrix in="SourceAlpha" type="matrix" values="0 0 0 0 0 0 0 0 0 0 0 0 0 0 0 0 0 0 127 0" result="hardAlpha"/>
<feMorphology radius="2" operator="dilate" in="SourceAlpha" result="effect1_dropShadow_11_271"/>
<feOffset dy="4"/>
<feGaussianBlur stdDeviation="10"/>
<feComposite in2="hardAlpha" operator="out"/>
<feColorMatrix type="matrix" values="0 0 0 0 0.933333 0 0 0 0 0.458824 0 0 0 0 0.129412 0 0 0 0.3 0"/>
<feBlend mode="normal" in2="BackgroundImageFix" result="effect1_dropShadow_11_271"/>
<feBlend mode="normal" in="SourceGraphic" in2="effect1_dropShadow_11_271" result="shape"/>
</filter>
<filter id="filter1_f_11_271" x="28.5" y="24.5" width="33" height="33" filterUnits="userSpaceOnUse" color-interpolation-filters="sRGB">
<feFlood flood-opacity="0" result="BackgroundImageFix"/>
<feBlend mode="normal" in="SourceGraphic" in2="BackgroundImageFix" result="shape"/>
<feGaussianBlur stdDeviation="0.75" result="effect1_foregroundBlur_11_271"/>
</filter>
</defs>
</svg>
