<svg width="66" height="66" viewBox="0 0 66 66" fill="none" xmlns="http://www.w3.org/2000/svg">
<g filter="url(#filter0_f_10_88)">
<circle cx="33" cy="33" r="31" fill="#FFBC8E"/>
<path d="M20.2483 43.6796V29.6208C20.2483 29.1262 20.3592 28.6575 20.581 28.215C20.8028 27.7724 21.1085 27.4079 21.498 27.1215L30.8705 20.0921C31.4172 19.6756 32.042 19.4673 32.745 19.4673C33.4479 19.4673 34.0727 19.6756 34.6195 20.0921L43.992 27.1215C44.3825 27.4079 44.6886 27.7724 44.9105 28.215C45.1323 28.6575 45.2427 29.1262 45.2416 29.6208V43.6796C45.2416 44.5387 44.9355 45.2745 44.3231 45.8868C43.7108 46.4991 42.9756 46.8048 42.1175 46.8037H37.4312C36.9886 46.8037 36.6179 46.6538 36.319 46.3539C36.0201 46.0539 35.8702 45.6832 35.8691 45.2417V37.4312C35.8691 36.9887 35.7192 36.6179 35.4192 36.319C35.1193 36.0202 34.7486 35.8702 34.307 35.8692H31.1829C30.7403 35.8692 30.3695 36.0191 30.0707 36.319C29.7718 36.619 29.6218 36.9897 29.6208 37.4312V45.2417C29.6208 45.6843 29.4708 46.0555 29.1709 46.3554C28.871 46.6553 28.5003 46.8048 28.0587 46.8037H23.3725C22.5133 46.8037 21.7781 46.4981 21.1668 45.8868C20.5555 45.2755 20.2493 44.5398 20.2483 43.6796Z" fill="#FFEDE0"/>
</g>
<defs>
<filter id="filter0_f_10_88" x="0" y="0" width="66" height="66" filterUnits="userSpaceOnUse" color-interpolation-filters="sRGB">
<feFlood flood-opacity="0" result="BackgroundImageFix"/>
<feBlend mode="normal" in="SourceGraphic" in2="BackgroundImageFix" result="shape"/>
<feGaussianBlur stdDeviation="1" result="effect1_foregroundBlur_10_88"/>
</filter>
</defs>
</svg>
